# xmcd
#
# Track frame offsets:
#	183
#	12238
#	26190
#	39998
#	52258
#	68283
#	82973
#	99080
#	112938
#	131443
#	143000
#	153765
#	170123
#	185875
#	199753
#	214580
#	226495
#	245945
#
# Disc length: 3519
#
# Revision: 3
# Processed by: cddbd v1.5.1PL0 Copyright (c) Steve Scherf et al.
# Submitted via: CDValet v3.31 - Copyright (c) 1997 Greg Leichner
# Normalized: r1:DSETVAR1,TDELIM( - ),TSWAP
#
DISCID=f10dbd12
DTITLE=Various Artist - I Will Always Love You
DYEAR=1900
DGENRE=
TTITLE0=Crystal Gayle - Don't It Make My Brown Eyes Blue
TTITLE1=Dolly Parton - I Will Always Love You
TTITLE2=Willy Nelson - Funny How Time Slips Away
TTITLE3=Patty Cline - Crazy
TTITLE4=Billie Jo Spears - Blanket On The Ground
TTITLE5=Glen Campbell - Rhinestone Cowboy
TTITLE6=Alabama - Feels So Right
TTITLE7=Don McLean - Your Cheating Heart
TTITLE8=Don Williams - I Believe In You
TTITLE9=Freddy Fender - Before The Next Teardrop Falls
TTITLE10=Jim Reeves - He'll Have To Go
TTITLE11=Anne Murray - You Needed Me
TTITLE12=Judds - Why Not Me
TTITLE13=Barbara Mandrell - I Don't Wanna Be Right
TTITLE14=Oak Ridge Boys - Ozark Mountain Jubilee
TTITLE15=Loretta Lynn - Coal Miner's Daughter
TTITLE16=Kenny Rogers - Coward Of The County
TTITLE17=Bellamy Brothers - We Don't Wanna Go For It
EXTD=
EXTT0=
EXTT1=
EXTT2=
EXTT3=
EXTT4=
EXTT5=
EXTT6=
EXTT7=
EXTT8=
EXTT9=
EXTT10=
EXTT11=
EXTT12=
EXTT13=
EXTT14=
EXTT15=
EXTT16=
EXTT17=
PLAYORDER=
